<?xml version="1.0" standalone="no"?>
<!DOCTYPE svg PUBLIC "-//W3C//DTD SVG 20010904//EN"
 "http://www.w3.org/TR/2001/REC-SVG-20010904/DTD/svg10.dtd">
<svg version="1.0" xmlns="http://www.w3.org/2000/svg"
 width="200.000000pt" height="200.000000pt" viewBox="0 0 200.000000 200.000000"
 preserveAspectRatio="xMidYMid meet">
<metadata>
Created by potrace 1.10, written by Peter Selinger 2001-2011
</metadata>
<g transform="translate(0.000000,200.000000) scale(0.100000,-0.100000)"
fill="#000000" stroke="none">
<path d="M1006 1460 c-35 -22 -62 -64 -116 -175 -63 -131 -90 -161 -152 -174
-72 -16 -127 -50 -166 -105 -38 -52 -81 -79 -120 -74 -21 2 -28 10 -33 35 -11
54 -25 63 -94 63 -69 0 -94 15 -77 47 11 20 52 60 52 50 0 -14 60 17 74 38 10
15 22 22 31 19 8 -4 15 -2 15 4 0 14 -25 22 -67 22 -29 0 -43 -8 -84 -52 -57
-61 -68 -91 -48 -127 13 -23 22 -26 77 -29 68 -3 92 -22 92 -74 0 -30 23 -57
48 -59 37 -3 68 3 90 17 23 15 32 41 10 28 -8 -4 -10 -3 -5 2 5 5 13 10 18 10
5 1 14 2 19 3 6 0 9 7 8 14 -2 6 3 11 11 9 8 -2 11 3 8 10 -2 8 4 24 14 37 21
25 25 21 9 -10 -6 -10 -8 -19 -5 -19 2 0 13 17 23 38 12 26 24 37 39 36 15 0
19 4 15 14 -4 12 0 14 16 10 12 -4 22 -3 22 0 0 4 14 8 32 8 45 2 87 54 154
190 64 131 86 162 130 180 39 16 44 17 44 5 0 -5 -14 -12 -30 -16 -38 -8 -67
-46 -119 -159 -45 -98 -111 -193 -142 -204 -17 -7 -16 -9 10 -19 26 -9 32 -8
48 9 9 11 13 19 8 18 -21 -5 -36 1 -30 10 4 6 11 8 16 5 5 -4 9 -1 9 5 0 6 5
8 10 5 6 -4 9 -1 8 7 -2 7 5 12 14 12 10 -1 14 4 11 12 -3 8 -1 14 5 14 5 0
12 -7 16 -15 3 -8 10 -15 16 -15 6 0 4 7 -5 16 -9 9 -14 23 -11 31 3 8 6 17 6
19 0 3 6 2 13 -2 8 -5 8 -2 -2 9 -7 9 -9 17 -5 17 10 0 40 61 36 73 -1 5 2 6
7 3 5 -3 12 6 15 19 4 14 11 23 16 20 6 -3 7 1 4 9 -3 9 -11 13 -18 9 -6 -3
-3 3 7 14 9 11 14 23 10 28 -5 4 -2 5 5 1 11 -6 11 -11 0 -24 -12 -15 -11 -16
5 -3 9 7 17 21 17 30 0 9 16 26 36 39 l36 23 66 -23 c37 -13 69 -26 70 -30 2
-5 11 -8 20 -8 22 0 52 -29 45 -46 -3 -8 0 -14 6 -14 6 0 11 -7 11 -15 0 -9
11 -20 25 -25 14 -5 25 -14 25 -20 0 -5 5 -10 11 -10 5 0 8 4 5 8 -3 5 1 9 8
9 9 0 13 -12 13 -34 -1 -32 -16 -40 -25 -13 -3 7 0 10 7 6 6 -4 11 -2 11 3 0
18 -15 13 -38 -12 -22 -24 -29 -47 -14 -47 5 0 8 -13 7 -30 -1 -23 1 -27 11
-19 11 9 11 4 4 -23 -6 -18 -10 -33 -10 -34 0 0 -7 -1 -16 -1 -10 0 -14 7 -11
19 5 16 3 17 -10 6 -14 -11 -15 -11 -11 2 3 8 -5 29 -17 45 -12 17 -25 37 -28
45 -16 36 2 -60 20 -104 14 -38 25 -52 47 -59 25 -8 32 -6 48 13 10 12 18 33
18 46 0 14 7 41 16 62 9 20 17 50 18 67 1 28 4 30 47 36 44 7 109 33 109 45 0
4 -10 3 -22 -1 -35 -11 -138 -22 -138 -14 0 9 27 19 54 19 12 0 31 6 41 14 16
12 12 13 -36 9 -30 -2 -66 -8 -81 -13 -33 -10 -50 2 -73 52 -20 45 -39 58
-133 92 -89 32 -164 34 -206 6z"/>
<path d="M1235 1168 c3 -15 0 -30 -6 -33 -6 -4 -8 -14 -4 -22 4 -13 3 -14 -10
-3 -13 11 -14 10 -10 -3 4 -8 2 -18 -4 -22 -14 -8 -14 -45 0 -45 5 0 8 -4 5
-9 -4 -5 0 -12 6 -14 10 -4 10 -6 1 -6 -7 -1 -13 -5 -13 -11 0 -6 9 -6 24 0
17 6 28 5 34 -3 8 -9 -8 -12 -64 -13 -61 -1 -74 2 -74 15 0 14 -2 14 -10 1 -9
-13 -10 -13 -10 0 0 13 -1 13 -10 0 -8 -13 -10 -12 -11 5 -1 11 -1 26 0 34 2
7 -2 10 -9 6 -7 -4 -7 1 2 14 7 12 16 21 19 21 4 0 10 8 14 17 4 11 -5 7 -24
-11 -35 -33 -41 -77 -16 -113 21 -29 55 -35 111 -18 26 8 50 12 53 10 2 -3 -1
-16 -7 -31 -10 -20 -17 -24 -35 -18 -39 11 -42 10 -45 -28 l-3 -38 48 0 c62 0
69 6 77 60 4 25 12 60 18 78 12 41 -3 65 -38 56 -30 -8 -32 15 -4 41 23 21 24
39 4 80 -14 29 -14 30 -9 3z"/>
<path d="M1030 1075 c-18 -19 -23 -36 -23 -75 0 -39 -4 -50 -14 -46 -8 3 -11
2 -8 -3 10 -17 -17 -25 -73 -22 -37 2 -52 -1 -47 -8 4 -7 -3 -11 -18 -11 -13
0 -36 -9 -49 -20 -14 -10 -28 -16 -32 -12 -4 3 -4 -2 0 -12 5 -14 4 -17 -5
-12 -6 4 -10 4 -9 -1 1 -4 -3 -18 -10 -29 -6 -12 -9 -24 -7 -28 3 -3 2 -4 -2
-1 -11 8 -46 -77 -47 -111 0 -18 -5 -31 -13 -31 -7 0 -13 5 -13 10 0 5 -9 -1
-19 -14 l-19 -24 2 38 c1 21 -2 41 -6 43 -5 3 -8 14 -8 25 0 13 -4 18 -12 13
-7 -4 -8 -3 -4 4 4 6 -1 23 -10 37 -11 18 -15 38 -11 65 6 47 -5 59 -27 28
-23 -32 -20 -56 15 -138 17 -40 28 -78 25 -86 -3 -8 0 -27 6 -42 6 -15 14 -43
17 -62 5 -28 11 -35 31 -36 38 -2 40 3 24 48 -15 45 -18 78 -6 78 10 0 34 -55
41 -95 6 -27 20 -34 56 -26 3 1 -3 20 -13 44 -10 26 -17 67 -16 107 1 66 5 76
70 169 22 31 73 51 129 51 42 0 135 34 135 49 0 3 -7 15 -15 25 -19 25 -19 69
0 106 19 37 16 38 -15 5z"/>
<path d="M1567 1046 c-21 -6 -35 -15 -31 -19 4 -4 -18 -31 -49 -60 -32 -29
-60 -51 -62 -48 -3 2 -5 -4 -5 -14 0 -10 -3 -15 -7 -12 -7 8 -52 -24 -139
-100 -34 -29 -66 -53 -71 -53 -6 0 -72 30 -146 66 l-136 66 -43 -30 c-66 -45
-98 -79 -98 -102 0 -26 9 -25 40 3 34 30 97 77 105 77 3 0 66 -29 139 -65 73
-36 136 -65 141 -65 8 0 83 59 245 194 75 62 121 94 131 91 12 -4 18 2 21 22
3 15 9 36 13 46 8 19 5 20 -48 3z"/>
<path d="M1291 969 c-6 -18 -11 -33 -11 -34 0 -2 16 -3 37 -3 23 0 39 -6 45
-16 8 -14 13 -13 44 11 31 23 33 28 20 41 -8 8 -26 16 -39 17 -14 2 -39 6 -55
10 -27 5 -31 3 -41 -26z"/>
<path d="M599 936 c-24 -21 -28 -46 -7 -46 6 0 8 7 4 15 -6 17 4 20 22 5 9 -7
9 -7 2 2 -15 18 -12 32 4 19 11 -10 14 -9 12 3 -4 25 -10 25 -37 2z"/>
<path d="M1443 837 l-53 -42 0 -140 0 -140 55 0 54 0 3 183 c2 100 1 182 -2
182 -3 0 -29 -19 -57 -43z m13 -274 c-3 -7 -10 -13 -16 -13 -6 0 -8 5 -5 10 3
6 1 10 -6 10 -18 0 -8 192 11 215 13 16 15 6 18 -95 1 -63 0 -120 -2 -127z"/>
<path d="M832 717 l-52 -42 2 -79 3 -79 54 0 54 0 1 122 c0 66 -1 121 -4 120
-3 0 -29 -19 -58 -42z m33 -39 c-1 -13 -3 -25 -5 -28 -1 -3 -1 -18 -1 -35 2
-35 -12 -60 -28 -51 -22 14 -8 96 16 96 12 0 13 3 4 14 -9 11 -9 15 1 19 7 3
14 6 14 6 1 1 0 -9 -1 -21z"/>
<path d="M982 634 l3 -117 55 0 55 0 3 91 3 91 -50 26 c-28 14 -55 25 -61 25
-7 0 -10 -39 -8 -116z m64 40 c-3 -8 -2 -12 3 -9 5 3 12 1 16 -5 3 -5 2 -10
-3 -10 -5 0 -7 -13 -4 -29 4 -32 -14 -75 -29 -66 -10 7 -13 118 -2 128 12 13
25 7 19 -9z"/>
<path d="M1258 685 c-21 -19 -46 -35 -55 -35 -16 0 -18 -9 -17 -66 l2 -66 56
-1 56 -2 0 102 c0 57 -1 103 -2 103 -2 0 -20 -16 -40 -35z m5 -97 c-5 -28 -26
-37 -38 -18 -9 14 25 65 35 54 5 -5 6 -21 3 -36z"/>
</g>
</svg>
